<svg id="local_fire_department-24px" xmlns="http://www.w3.org/2000/svg" width="235" height="235" viewBox="0 0 235 235">
  <g id="Group_28" data-name="Group 28">
    <rect id="Rectangle_471" data-name="Rectangle 471" width="235" height="235" fill="none"/>
  </g>
  <g id="Group_29" data-name="Group 29" transform="translate(39.26 14.683)">
    <path id="Path_210" data-name="Path 210" d="M155.937,108.029c-15.41-40.046-70.276-42.2-57.026-100.408a4.95,4.95,0,0,0-7.361-5.4C55.922,23.227,30.3,65.334,51.8,120.494c1.767,4.515-3.533,8.735-7.361,5.791C26.673,112.839,24.808,93.5,26.378,79.664a4.913,4.913,0,0,0-8.932-3.337C10.772,86.534,4,103.024,4,127.856,7.73,182.82,54.155,199.7,70.841,201.861c23.851,3.043,49.664-1.374,68.215-18.354C159.471,164.564,166.93,134.334,155.937,108.029ZM64.853,157.4c14.134-3.435,21.4-13.643,23.36-22.673,3.239-14.036-9.422-27.777-.883-49.959,3.239,18.354,32.1,29.838,32.1,49.861C120.211,159.46,93.317,180.759,64.853,157.4Z" transform="translate(-4 -1.496)" fill="#0073b6"/>
  </g>
</svg>
