<svg id="_1" data-name=" 1" xmlns="http://www.w3.org/2000/svg" width="123.624" height="123.624" viewBox="0 0 123.624 123.624">
  <path id="Path_3" data-name="Path 3" d="M61.812,10.989c16.483,0,18.544,0,24.725.687a31.855,31.855,0,0,1,11.676,2.06,24.12,24.12,0,0,1,11.676,11.676,31.855,31.855,0,0,1,2.06,11.676c0,6.181.687,8.242.687,24.725s0,18.544-.687,24.725a31.855,31.855,0,0,1-2.06,11.676,24.12,24.12,0,0,1-11.676,11.676,31.855,31.855,0,0,1-11.676,2.06c-6.181,0-8.242.687-24.725.687s-18.544,0-24.725-.687a31.855,31.855,0,0,1-11.676-2.06A24.12,24.12,0,0,1,13.736,98.212a31.855,31.855,0,0,1-2.06-11.676c0-6.181-.687-8.242-.687-24.725s0-18.544.687-24.725a31.855,31.855,0,0,1,2.06-11.676,24.667,24.667,0,0,1,4.808-6.868,11.612,11.612,0,0,1,6.868-4.808,31.855,31.855,0,0,1,11.676-2.06c6.181-.687,8.242-.687,24.725-.687M61.812,0C45.329,0,42.582,0,36.4.687a42.4,42.4,0,0,0-15.11,2.747A26.886,26.886,0,0,0,10.3,10.3,26.886,26.886,0,0,0,3.434,21.291C1.374,25.412.687,29.532.687,36.4,0,42.582,0,45.329,0,61.812s0,19.23.687,25.412a42.4,42.4,0,0,0,2.747,15.11A26.886,26.886,0,0,0,10.3,113.322a26.886,26.886,0,0,0,10.989,6.868,42.4,42.4,0,0,0,15.11,2.747c6.181.687,8.928.687,25.412.687s19.23,0,25.412-.687a42.4,42.4,0,0,0,15.11-2.747,28.815,28.815,0,0,0,17.857-17.857,42.4,42.4,0,0,0,2.747-15.11c0-6.868.687-8.928.687-25.412s0-19.23-.687-25.412a42.4,42.4,0,0,0-2.747-15.11A26.886,26.886,0,0,0,113.322,10.3a26.886,26.886,0,0,0-10.989-6.868A42.4,42.4,0,0,0,87.224.687C81.042,0,78.3,0,61.812,0m0,30.219A31.084,31.084,0,0,0,30.219,61.812,31.593,31.593,0,1,0,61.812,30.219m0,52.2a20.236,20.236,0,0,1-20.6-20.6,20.236,20.236,0,0,1,20.6-20.6,20.236,20.236,0,0,1,20.6,20.6,20.236,20.236,0,0,1-20.6,20.6M94.778,21.291a7.555,7.555,0,1,0,7.555,7.555,7.622,7.622,0,0,0-7.555-7.555" fill="#0073b6" fill-rule="evenodd"/>
</svg>
