<svg xmlns="http://www.w3.org/2000/svg" width="151.038" height="122.508" viewBox="0 0 151.038 122.508">
  <path id="Path_213" data-name="Path 213" d="M85.829,124.508c57.059,0,88.105-46.99,88.105-88.105v-4.2c5.874-4.2,10.908-10.069,15.1-15.943A69.656,69.656,0,0,1,171.417,21.3,32.646,32.646,0,0,0,184.842,4.517a76.963,76.963,0,0,1-19.3,7.552A29.967,29.967,0,0,0,142.887,2c-16.782,0-31.047,14.265-31.047,31.047,0,2.517,0,5.035.839,6.713C86.668,38.081,64.012,26.334,48.908,7.035a32.134,32.134,0,0,0-4.2,15.943c0,10.908,5.874,20.138,13.426,26.012a28.287,28.287,0,0,1-14.265-4.2h0A30.666,30.666,0,0,0,69.047,75c-2.517.839-5.035.839-8.391.839-1.678,0-4.2,0-5.874-.839,4.2,12.586,15.1,20.977,29.368,21.817a63.353,63.353,0,0,1-38.6,13.426A23.231,23.231,0,0,1,38,109.4c13.426,10.069,30.208,15.1,47.829,15.1" transform="translate(-38 -2)" fill="#0073b6" fill-rule="evenodd"/>
</svg>
