<?xml version="1.0" encoding="utf-8"?>
<!-- Generator: Adobe Illustrator 25.1.0, SVG Export Plug-In . SVG Version: 6.00 Build 0)  -->
<svg version="1.1" id="account_circle-24px" xmlns="http://www.w3.org/2000/svg" xmlns:xlink="http://www.w3.org/1999/xlink"
	 x="0px" y="0px" viewBox="0 0 24 24" style="enable-background:new 0 0 24 24;" xml:space="preserve">
<style type="text/css">
	.st0{fill:none;}
	.st1{fill:#FFFFFF;}
</style>
<path id="Path_221" class="st0" d="M158.2-123h162.9V39.9H158.2V-123z"/>
<path id="Path_222" class="st1" d="M12,0C5.4,0,0,5.4,0,12s5.4,12,12,12s12-5.4,12-12l0,0C24,5.4,18.6,0,12,0z M12,3.6
	c2,0,3.6,1.6,3.6,3.6S14,10.8,12,10.8S8.4,9.2,8.4,7.2l0,0C8.4,5.2,10,3.6,12,3.6L12,3.6z M12,20.6c-2.9,0-5.6-1.5-7.2-3.9
	c0-2.4,4.8-3.7,7.2-3.7s7.2,1.3,7.2,3.7C17.6,19.2,14.9,20.6,12,20.6L12,20.6z"/>
</svg>
