<?xml version="1.0" encoding="utf-8"?>
<!-- Generator: Adobe Illustrator 25.1.0, SVG Export Plug-In . SVG Version: 6.00 Build 0)  -->
<svg version="1.1" id="Layer_1" xmlns="http://www.w3.org/2000/svg" xmlns:xlink="http://www.w3.org/1999/xlink" x="0px" y="0px"
	 viewBox="0 0 22 19" style="enable-background:new 0 0 22 19;" xml:space="preserve">
<style type="text/css">
	.st0{fill:none;}
	.st1{fill:#FFFFFF;}
</style>
<path class="st0" d="M-1.3-1.9h24v24h-24V-1.9z M-1.3-1.9h24v24h-24V-1.9z M-1.3-1.9h24v24h-24V-1.9z M-1.3-1.9h24v24h-24V-1.9z"/>
<path class="st1" d="M11,4c2.8,0,5,2.2,5,5c0,0.6-0.1,1.3-0.4,1.8l2.9,2.9c1.5-1.3,2.7-2.9,3.4-4.8c-1.7-4.4-6-7.5-11-7.5
	c-1.4,0-2.7,0.2-4,0.7l2.2,2.2C9.7,4.1,10.4,4,11,4z M1,1.3l2.3,2.3L3.7,4C2.1,5.3,0.8,7,0,9c1.7,4.4,6,7.5,11,7.5
	c1.6,0,3-0.3,4.4-0.8l0.4,0.4l2.9,2.9l1.3-1.3L2.3,0L1,1.3z M6.5,6.8l1.5,1.6C8,8.6,8,8.8,8,9c0,1.7,1.3,3,3,3c0.2,0,0.4,0,0.6-0.1
	l1.6,1.5C12.5,13.8,11.8,14,11,14c-2.8,0-5-2.2-5-5C6,8.2,6.2,7.5,6.5,6.8z M10.8,6L14,9.2L14,9c0-1.7-1.3-3-3-3L10.8,6z"/>
</svg>
