<?xml version="1.0" encoding="utf-8"?>
<!-- Generator: Adobe Illustrator 25.1.0, SVG Export Plug-In . SVG Version: 6.00 Build 0)  -->
<svg version="1.1" id="Layer_1" xmlns="http://www.w3.org/2000/svg" xmlns:xlink="http://www.w3.org/1999/xlink" x="0px" y="0px"
	 viewBox="0 0 22 19" style="enable-background:new 0 0 22 19;" xml:space="preserve">
<style type="text/css">
	.st0{fill:none;}
	.st1{fill:#FFFFFF;}
</style>
<path class="st0" d="M-1.3-1.9h24v24h-24V-1.9z M-1.3-1.9h24v24h-24V-1.9z M-1.3-1.9h24v24h-24V-1.9z M-1.3-1.9h24v24h-24V-1.9z"/>
<path class="st1" d="M11,2C6,2,1.7,5.1,0,9.5C1.7,13.9,6,17,11,17s9.3-3.1,11-7.5C20.3,5.1,16,2,11,2z M11,14.5c-2.8,0-5-2.2-5-5
	s2.2-5,5-5s5,2.2,5,5S13.8,14.5,11,14.5z M11,6.5c-1.7,0-3,1.3-3,3s1.3,3,3,3s3-1.3,3-3S12.7,6.5,11,6.5z"/>
</svg>
