<?xml version="1.0" encoding="utf-8"?>
<!-- Generator: Adobe Illustrator 25.1.0, SVG Export Plug-In . SVG Version: 6.00 Build 0)  -->
<svg version="1.1" id="_1" xmlns="http://www.w3.org/2000/svg" xmlns:xlink="http://www.w3.org/1999/xlink" x="0px" y="0px"
	 viewBox="0 0 123.6 123.6" style="enable-background:new 0 0 123.6 123.6;" xml:space="preserve">
<style type="text/css">
	.st0{fill-rule:evenodd;clip-rule:evenodd;fill:#FFFFFF;}
</style>
<path id="Path_3" class="st0" d="M61.8,11c16.5,0,18.5,0,24.7,0.7c4-0.1,7.9,0.6,11.7,2.1c5.1,2.4,9.3,6.5,11.7,11.7
	c1.4,3.7,2.1,7.7,2.1,11.7c0,6.2,0.7,8.2,0.7,24.7s0,18.5-0.7,24.7c0.1,4-0.6,7.9-2.1,11.7c-2.4,5.1-6.5,9.3-11.7,11.7
	c-3.7,1.4-7.7,2.1-11.7,2.1c-6.2,0-8.2,0.7-24.7,0.7s-18.5,0-24.7-0.7c-4,0.1-7.9-0.6-11.7-2.1c-5.1-2.4-9.3-6.5-11.7-11.7
	c-1.4-3.7-2.1-7.7-2.1-11.7c0-6.2-0.7-8.2-0.7-24.7s0-18.5,0.7-24.7c-0.1-4,0.6-7.9,2.1-11.7c1.2-2.5,2.8-4.9,4.8-6.9
	c1.6-2.4,4.1-4.1,6.9-4.8c3.7-1.4,7.7-2.1,11.7-2.1C43.3,11,45.3,11,61.8,11 M61.8,0C45.3,0,42.6,0,36.4,0.7
	c-5.2,0-10.3,0.9-15.1,2.7c-4.2,1.4-7.9,3.7-11,6.9c-3.2,3-5.5,6.8-6.9,11c-2.1,4.1-2.7,8.2-2.7,15.1C0,42.6,0,45.3,0,61.8
	S0,81,0.7,87.2c0,5.2,0.9,10.3,2.7,15.1c1.4,4.2,3.7,7.9,6.9,11c3,3.2,6.8,5.5,11,6.9c4.8,1.8,9.9,2.8,15.1,2.7
	c6.2,0.7,8.9,0.7,25.4,0.7s19.2,0,25.4-0.7c5.2,0,10.3-0.9,15.1-2.7c8.4-2.9,15-9.5,17.9-17.9c1.8-4.8,2.8-9.9,2.7-15.1
	c0-6.9,0.7-8.9,0.7-25.4s0-19.2-0.7-25.4c0-5.2-0.9-10.3-2.7-15.1c-1.4-4.2-3.7-7.9-6.9-11c-3-3.2-6.8-5.5-11-6.9
	c-4.8-1.8-9.9-2.8-15.1-2.7C81,0,78.3,0,61.8,0 M61.8,30.2c-17.2-0.3-31.3,13.4-31.6,30.6c0,0.3,0,0.7,0,1
	c0,17.4,14.1,31.6,31.6,31.6s31.6-14.1,31.6-31.6S79.3,30.2,61.8,30.2L61.8,30.2 M61.8,82.4c-11.2,0.2-20.4-8.7-20.6-19.9
	c0-0.2,0-0.5,0-0.7C41,50.6,49.9,41.4,61.1,41.2c0.2,0,0.5,0,0.7,0C73,41,82.2,49.9,82.4,61.1c0,0.2,0,0.5,0,0.7
	c0.2,11.2-8.7,20.4-19.9,20.6C62.3,82.4,62.1,82.4,61.8,82.4 M94.8,21.3c-4.2,0-7.6,3.4-7.6,7.6s3.4,7.6,7.6,7.6s7.6-3.4,7.6-7.6
	C102.3,24.7,98.9,21.3,94.8,21.3"/>
</svg>
