<?xml version="1.0" encoding="utf-8"?>
<!-- Generator: Adobe Illustrator 25.1.0, SVG Export Plug-In . SVG Version: 6.00 Build 0)  -->
<svg version="1.1" id="Layer_1" xmlns="http://www.w3.org/2000/svg" xmlns:xlink="http://www.w3.org/1999/xlink" x="0px" y="0px"
	 viewBox="0 0 151 122.5" style="enable-background:new 0 0 151 122.5;" xml:space="preserve">
<style type="text/css">
	.st0{fill-rule:evenodd;clip-rule:evenodd;fill:#FFFFFF;}
</style>
<path id="Path_213" class="st0" d="M47.8,122.5c57.1,0,88.1-47,88.1-88.1v-4.2c5.9-4.2,10.9-10.1,15.1-15.9
	c-5.6,2.4-11.5,4.1-17.6,5c6.2-3.9,11-9.8,13.4-16.8c-6.1,3.4-12.6,5.9-19.3,7.6c-5.7-6.5-14-10.1-22.7-10.1c-16.8,0-31,14.3-31,31
	c0,2.5,0,5,0.8,6.7C48.7,36.1,26,24.3,10.9,5C8.1,9.9,6.7,15.4,6.7,21c0,10.9,5.9,20.1,13.4,26c-5-0.1-10-1.6-14.3-4.2l0,0
	C5.9,57.6,16.5,70.3,31,73c-2.5,0.8-5,0.8-8.4,0.8c-1.7,0-4.2,0-5.9-0.8C21,85.6,31.9,94,46.1,94.8c-11,8.6-24.6,13.3-38.6,13.4
	c-2.5,0.1-5.1-0.1-7.5-0.8C13.4,117.5,30.2,122.5,47.8,122.5"/>
</svg>
