<svg id="account_circle-24px" xmlns="http://www.w3.org/2000/svg" width="162.933" height="162.933" viewBox="0 0 162.933 162.933">
  <path id="Path_221" data-name="Path 221" d="M0,0H162.933V162.933H0Z" fill="none"/>
  <path id="Path_222" data-name="Path 222" d="M69.889,2a67.889,67.889,0,1,0,67.889,67.889A67.914,67.914,0,0,0,69.889,2Zm0,20.367A20.367,20.367,0,1,1,49.522,42.733,20.339,20.339,0,0,1,69.889,22.367Zm0,96.4a48.884,48.884,0,0,1-40.733-21.86C29.359,83.4,56.311,76,69.889,76c13.51,0,40.53,7.4,40.733,20.91A48.884,48.884,0,0,1,69.889,118.769Z" transform="translate(11.578 11.578)" fill="#fff"/>
</svg>
