<?xml version="1.0" encoding="utf-8"?>
<!-- Generator: Adobe Illustrator 25.1.0, SVG Export Plug-In . SVG Version: 6.00 Build 0)  -->
<svg version="1.1" id="Layer_1" xmlns="http://www.w3.org/2000/svg" xmlns:xlink="http://www.w3.org/1999/xlink" x="0px" y="0px"
	 viewBox="0 0 95 22.8" style="enable-background:new 0 0 95 22.8;" xml:space="preserve">
<style type="text/css">
	.st0{fill:#FFFFFF;}
</style>
<g id="Group_27" transform="translate(515.648 -327.465)">
	<path id="Path_200" class="st0" d="M-439.4,332.7c-0.5,0-0.8,0.1-0.7,0.7c0.1,2.9-0.1,5.9,0.2,8.9c-0.1-0.1-0.1-0.1-0.2-0.2
		c-1.5-2.9-3.4-5.6-5.1-8.4c-0.3-0.7-1-1.1-1.7-1c-0.5,0-0.6,0.2-0.6,0.6c0,3.5,0,7.1,0,10.6c0,0.6,0.3,0.6,0.7,0.6
		c0.4,0,0.8,0.2,0.8-0.5c0-2,0-4.1,0-6.1V335c0,0,0.1,0,0.1,0c1.5,3,3.5,5.8,5.2,8.7c0.3,0.6,0.9,0.9,1.5,0.9c0.5,0,0.6-0.2,0.6-0.7
		c0-3.5,0-7,0-10.5C-438.6,332.8-438.8,332.7-439.4,332.7z"/>
	<path id="Path_201" class="st0" d="M-477.7,338.6c0-1.8,0-3.6,0-5.3c0-0.5-0.1-0.6-0.6-0.6c-0.2,0-0.3,0-0.5,0
		c-0.5-0.1-0.6,0.1-0.6,0.6c0,1.3,0,2.6,0,3.8c0,0.4-0.1,0.5-0.5,0.5c-1.5,0-3.1,0-4.6,0c-0.5,0-0.6-0.2-0.5-0.6c0-1.3,0-2.5,0-3.8
		c0-0.7-0.3-0.6-0.7-0.6c-0.4,0-0.9-0.2-0.9,0.6c0.1,2.1,0,4.3,0,6.4v3.8c0,1,0,0.9,1,1c0.5,0,0.6-0.1,0.6-0.6c0-1.5,0-2.9,0-4.4
		c0-0.5,0.1-0.6,0.6-0.6c1.5,0,3,0,4.5,0c0.5,0,0.6,0.2,0.6,0.6c0,1.4,0,2.8,0,4.2c0,0.6,0.2,0.7,0.7,0.7c0.1,0,0.2,0,0.3,0
		c0.5,0.1,0.6-0.2,0.6-0.6C-477.7,342.1-477.7,340.4-477.7,338.6z"/>
	<path id="Path_202" class="st0" d="M-469.6,334c-0.5-1.4-0.5-1.4-1.9-1.3c-0.3,0-0.5,0.1-0.5,0.4c-1.2,3.7-2.5,7.3-3.7,11
		c0,0.1-0.1,0.3,0,0.4c0.2,0.3,1.5,0,1.6-0.4c0.3-0.9,0.6-1.9,0.9-2.9c0-0.3,0.3-0.5,0.6-0.4c0,0,0,0,0,0c1.1,0,2.2,0,3.3,0
		c0.3,0,0.5,0.1,0.6,0.4c0.2,0.7,0.4,1.3,0.7,1.9c0.5,1.4,0.5,1.4,2,1.3c0,0,0,0,0.1,0c0.1-0.2,0-0.3-0.1-0.5
		C-467.4,340.7-468.5,337.4-469.6,334z M-469.7,339.6c-0.9,0-1.7,0-2.6,0c-0.4,0-0.4-0.2-0.3-0.5c0.5-1.6,1.1-3.1,1.6-4.7
		c0.5,1.6,1.1,3.2,1.6,4.8C-469.3,339.5-469.4,339.6-469.7,339.6L-469.7,339.6z"/>
	<path id="Path_203" class="st0" d="M-450,343.2c-1.3,0-2.7,0-4,0c-0.4,0-0.6-0.1-0.5-0.5c0-1.1,0-2.1,0-3.2c0-0.4,0.1-0.5,0.5-0.5
		c1.2,0,2.4,0,3.6,0c0.6,0,0.5-0.3,0.5-0.6s0.1-0.7-0.5-0.6c-1.2,0-2.4,0-3.6,0c-0.4,0-0.5-0.1-0.5-0.5c0-0.9,0-1.8,0-2.7
		c0-0.5,0.2-0.6,0.6-0.6c1.3,0,2.5,0,3.8,0c0.6,0,0.6-0.3,0.5-0.7c0-0.4,0.1-0.7-0.5-0.7c-1.8,0-3.6,0-5.3,0c-0.4,0-0.6,0.1-0.6,0.6
		c0,1.8,0,3.6,0,5.3c0,1.8,0,3.6,0,5.4c0,0.4,0.1,0.5,0.5,0.5c1.9,0,3.7,0,5.6,0c0.6,0,0.6-0.2,0.6-0.7S-449.5,343.2-450,343.2z"/>
	<path id="Path_204" class="st0" d="M-421.1,332.7c-2.7,0-5.3,0-8,0c-0.6,0-0.4,0.4-0.4,0.7c0,0.3-0.2,0.7,0.4,0.7
		c0.7,0,1.4,0,2.1,0c1,0,1,0,1,1.1c0,2.9,0,5.9,0,8.8c0,0.4,0.1,0.7,0.6,0.6c0.2,0,0.3,0,0.5,0c0.5,0.1,0.6-0.1,0.6-0.6
		c0-1.6,0-3.1,0-4.7c0-1.6,0-3.2,0-4.8c0-0.4,0.1-0.5,0.5-0.5c0.9,0,1.8,0,2.7,0c0.5,0,0.4-0.3,0.4-0.6
		C-420.8,333.2-420.5,332.7-421.1,332.7z"/>
	<path id="Path_205" class="st0" d="M-458.3,343.2c-1.3,0-2.6,0-3.9,0c-0.6,0-0.7-0.2-0.7-0.7c0-2.9,0-5.9,0-8.8c0-1,0-1-1-1
		c-0.4,0-0.5,0.1-0.5,0.5c0,1.8,0,3.5,0,5.3c0,1.8,0,3.6,0,5.4c0,0.4,0.1,0.6,0.5,0.6c1.9,0,3.7,0,5.6,0c0.5,0,0.5-0.2,0.5-0.6
		C-457.8,343.6-457.6,343.2-458.3,343.2z"/>
	<path id="Path_206" class="st0" d="M-430.8,338.6c0-1.8,0-3.6,0-5.3c0-0.4-0.1-0.6-0.5-0.5c-0.2,0-0.4,0-0.5,0
		c-0.3,0-0.5,0.1-0.5,0.4c0,3.7,0,7.3,0,11c0,0.3,0.1,0.4,0.4,0.4c0.2,0,0.4,0,0.6,0c0.5,0.1,0.6-0.1,0.5-0.6
		C-430.8,342.2-430.8,340.4-430.8,338.6z"/>
	<path id="Path_207" class="st0" d="M-507.4,345.2c-0.4-0.9-1-1.8-1.5-2.7c-0.4-0.9-0.9-1.7-1.4-2.5c-0.4-0.5-0.2-1,0-1.5
		c0.5-0.8,0.9-1.5,1.2-2.4c0.4-0.7,0.8-1.4,1.1-2.2c0.3-0.5,0.6-1.1,0.8-1.6l0,0c1.1-0.1,2.3,0,3.5-0.1l-0.3,0.7l-2.3,4.1h6.9
		l-2.6-4.8c-0.6-1.3-1.3-2.6-2-3.9c-0.2-0.9-0.8-1-1.5-0.9h-2.6c-0.6,0-1.3-0.2-1.5,0.7l-1.1,1.9l-1.1,1.9l-1.5,2.7
		c-0.7,1.3-1.5,2.6-2.2,3.8c-0.1,0.2-0.1,0.4,0,0.6c0.7,1.3,1.5,2.5,2.2,3.8l1.5,2.7l1.2,2.1l1.3,2.3c0.6,0.3,1.2,0.1,1.8,0.1h3
		L-507.4,345.2L-507.4,345.2z"/>
	<path id="Path_208" class="st0" d="M-491.6,335.7c-0.4-0.8-0.8-1.5-1.2-2.2c-0.5-1.1-1.1-2.1-1.8-3.1c-0.4-0.9-0.9-1.8-1.5-2.6
		c0-0.3-0.3-0.4-0.5-0.4c-0.5,0-0.9,0-1.4,0h-2.7l2.5,4.8c0.5,1.2,1.2,2.4,1.8,3.6c0.4,0.8,0.8,1.6,1.2,2.4c0.3,0.4,0.3,1,0,1.4
		c-0.3,0.5-0.5,0.9-0.7,1.4c-0.2,0.3-0.4,0.6-0.5,1l-1.6,3.2c-0.1,0.1-0.2,0.2-0.2,0.4l0,0c-0.7,0.1-1.4,0.1-2.1,0.1
		c-0.4,0-0.8,0.2-1.1-0.1c0.2-0.3,0.3-0.5,0.3-0.8l1.7-3.9c-1.5,0-2.8,0-4.1,0c0,0-0.1,0-0.1,0c-0.2,0-0.4,0-0.6,0
		c-0.6,0-1.1,0-1.7,0.1l0,0c0.9,1.9,1.9,3.7,3,5.5c0.6,1.2,1.3,2.4,1.9,3.6c0,0.3,0.2,0.4,0.5,0.4c0,0,0,0,0.1,0c0.4,0,0.8,0,1.2,0
		h1.5c0.4,0,0.7,0,1.1,0c0.3,0.1,0.7-0.1,0.8-0.5c0,0,0,0,0-0.1l0.7-1.2l0,0c0.3-0.4,0.6-0.9,0.8-1.4c0.6-1,1.2-2.1,1.8-3.2
		c0.5-0.7,0.9-1.5,1.3-2.3c0.5-0.9,1.1-1.8,1.6-2.8c0.1-0.2,0.1-0.4,0-0.5C-490.6,337.5-491.1,336.6-491.6,335.7z M-501.5,345.5
		L-501.5,345.5z"/>
	<path id="Path_209" class="st0" d="M-452.4,332c0.7-0.6,1.3-1.2,2.1-1.9c-0.7,0-1.5-0.3-1.9,0.1c-0.6,0.5-1,1.2-1.6,2
		C-453.2,332.1-452.8,332.3-452.4,332z"/>
</g>
</svg>
