<svg xmlns="http://www.w3.org/2000/svg" width="201" height="48.282" viewBox="0 0 201 48.282">
  <g id="Group_27" data-name="Group 27" transform="translate(515.648 -327.465)">
    <path id="Path_200" data-name="Path 200" d="M-183.452,351.642c-1.109,0-1.6.14-1.573,1.455.123,6.214-.118,12.433.352,18.83a3.091,3.091,0,0,1-.359-.422c-3.109-6.236-7.213-11.87-10.757-17.842a3.415,3.415,0,0,0-3.644-2.033c-1.023.095-1.258.355-1.253,1.333.038,7.495.059,14.99-.015,22.484-.013,1.306.621,1.252,1.482,1.2.786-.05,1.715.368,1.68-1.155-.1-4.3-.034-8.606-.034-12.91v-6.12c.017.009.122.027.152.085,3.275,6.362,7.407,12.207,11.041,18.35a3.008,3.008,0,0,0,3.174,1.806c1.087-.085,1.341-.337,1.334-1.4-.048-7.4-.06-14.8.007-22.194C-181.855,351.807-182.333,351.639-183.452,351.642Z" transform="translate(-170.739 -13.087)" fill="#fff"/>
    <path id="Path_201" data-name="Path 201" d="M-362.25,364.229c0-3.772-.032-7.543.022-11.314.014-.96-.27-1.332-1.221-1.2a3.559,3.559,0,0,1-1.013,0c-.989-.148-1.212.3-1.193,1.222.056,2.706-.016,5.416.041,8.122.018.88-.2,1.154-1.114,1.137-3.239-.059-6.479-.067-9.718,0-1.007.022-1.177-.336-1.159-1.229.052-2.658-.073-5.322.056-7.975.068-1.382-.632-1.331-1.563-1.278-.905.051-1.891-.346-1.848,1.323.114,4.542.039,9.089.039,13.634v7.978c0,2.052,0,2,2.069,2.06.988.031,1.317-.2,1.292-1.247-.075-3.093.015-6.189-.051-9.282-.021-.973.281-1.193,1.205-1.177,3.19.056,6.383.073,9.572-.006,1.087-.027,1.238.37,1.219,1.318-.058,3,.043,6-.053,8.991-.038,1.2.38,1.544,1.465,1.383a2.38,2.38,0,0,1,.723,0c1.064.176,1.264-.326,1.25-1.3C-362.283,371.675-362.25,367.951-362.25,364.229Z" transform="translate(-73.017 -13.134)" fill="#fff"/>
    <path id="Path_202" data-name="Path 202" d="M-318.676,354.513c-1.007-2.958-1-2.94-4.043-2.825a1.037,1.037,0,0,0-1.14.806q-3.942,11.648-7.926,23.278c-.087.252-.275.554-.05.806.49.549,3.242-.1,3.484-.815.678-2.005,1.365-4.016,1.987-6.039a1.065,1.065,0,0,1,1.213-.907q3.482.062,6.964,0c.733-.014.994.279,1.19.939.407,1.383.93,2.738,1.387,4.107,1.007,3.022,1.007,3.022,4.171,2.752a.541.541,0,0,0,.133-.055c.133-.362-.087-.65-.192-.966Q-315.089,365.057-318.676,354.513Zm-.211,11.818c-1.831-.027-3.668-.041-5.5,0-.92.023-.9-.352-.659-1.048,1.122-3.329,2.358-6.616,3.329-10.046,1.076,3.466,2.3,6.841,3.475,10.229C-318.031,366.092-318.2,366.34-318.887,366.33Z" transform="translate(-99.591 -13.112)" fill="#fff"/>
    <path id="Path_203" data-name="Path 203" d="M-227.565,373.956c-2.848.1-5.7,0-8.553.051-.887.016-1.171-.23-1.147-1.136.062-2.27.057-4.543,0-6.813-.021-.843.263-1.054,1.067-1.039,2.56.046,5.125-.052,7.683.048,1.195.046,1.051-.614,1.045-1.348s.169-1.414-1.035-1.37c-2.558.092-5.122,0-7.683.044-.811.014-1.1-.215-1.076-1.055.056-1.883.082-3.772-.008-5.652-.049-1.032.368-1.181,1.253-1.165,2.657.048,5.318-.048,7.973.046,1.2.043,1.193-.555,1.164-1.408-.027-.783.148-1.483-1.116-1.455-3.768.083-7.539.061-11.308.007-.949-.013-1.217.247-1.2,1.2.055,3.769.023,7.539.023,11.309,0,3.818.023,7.636-.019,11.454-.009.826.234,1.047,1.049,1.039,3.962-.04,7.927-.069,11.888.013,1.183.024,1.176-.524,1.176-1.385S-226.379,373.917-227.565,373.956Z" transform="translate(-149.16 -13.14)" fill="#fff"/>
    <path id="Path_204" data-name="Path 204" d="M-99.511,351.755c-5.61.009-11.221.016-16.831-.006-1.2-.005-.811.844-.821,1.424s-.338,1.438.846,1.4c1.5-.047,3-.011,4.5-.011,2.184,0,2.184,0,2.184,2.228,0,6.239.016,12.478-.018,18.717,0,.9.163,1.382,1.17,1.223a3.341,3.341,0,0,1,1.013,0c.956.146,1.208-.239,1.192-1.182-.058-3.288-.022-6.577-.022-9.866,0-3.385.022-6.771-.017-10.156-.008-.751.185-1,.962-.98,1.933.054,3.87-.026,5.8.034,1.076.034.9-.683.824-1.25S-98.175,351.753-99.511,351.755Z" transform="translate(-216 -13.165)" fill="#fff"/>
    <path id="Path_205" data-name="Path 205" d="M-265.682,373.963c-2.753.105-5.516-.038-8.27.063-1.213.045-1.414-.387-1.406-1.473.047-6.24.023-12.481.023-18.721,0-2.14,0-2.09-2.171-2.115-.9-.01-1.149.244-1.138,1.136.047,3.724.02,7.45.02,11.174,0,3.822.024,7.644-.018,11.465-.01.89.15,1.253,1.161,1.236,3.917-.064,7.837-.075,11.754,0,1.113.022,1.149-.488,1.088-1.29C-264.692,374.735-264.329,373.911-265.682,373.963Z" transform="translate(-128.486 -13.147)" fill="#fff"/>
    <path id="Path_206" data-name="Path 206" d="M-127.032,364.18c0-3.77-.021-7.541.017-11.31.009-.832-.128-1.3-1.088-1.153a4.538,4.538,0,0,1-1.158,0c-.714-.074-1.03.124-1.027.935q.041,11.6.006,23.2c0,.6.142.906.8.84a5.235,5.235,0,0,1,1.3,0c1,.154,1.175-.31,1.164-1.208C-127.058,371.721-127.032,367.95-127.032,364.18Z" transform="translate(-208.913 -13.132)" fill="#fff"/>
    <path id="Path_207" data-name="Path 207" d="M-498.194,364.921a53.359,53.359,0,0,0-3.21-5.761,43.106,43.106,0,0,0-2.9-5.224c-.835-1.058-.486-2.107.024-3.154a36.907,36.907,0,0,0,2.58-5,35.076,35.076,0,0,0,2.354-4.577,20.972,20.972,0,0,0,1.756-3.426h0c2.392-.31,4.78-.08,7.32-.154l-.647,1.51-4.956,8.653h14.666l-5.4-10.09q-1.979-4.209-4.306-8.237c-.339-1.89-1.611-2.189-3.231-1.895h-5.516c-1.3-.061-2.765-.49-3.232,1.392l-2.316,4.059-2.32,4.068-3.243,5.782c-1.554,2.7-3.1,5.4-4.67,8.08a1.167,1.167,0,0,0,0,1.33c1.571,2.685,3.116,5.385,4.671,8.08l3.241,5.779,2.533,4.393,2.779,4.873c1.2.652,2.477.175,3.716.253h6.4l-6.1-10.73Z" transform="translate(0 0)" fill="#fff"/>
    <path id="Path_208" data-name="Path 208" d="M-440.94,344.954a34,34,0,0,0-2.635-4.6,71.224,71.224,0,0,0-3.725-6.5,50.067,50.067,0,0,0-3.177-5.527c-.1-.663-.536-.8-1.131-.776-.995.041-1.991.038-2.987.054h-5.765l5.223,10.1c1.126,2.588,2.462,5.071,3.8,7.553.85,1.719,1.645,3.469,2.569,5.146a2.576,2.576,0,0,1,.015,2.94,29.616,29.616,0,0,0-1.475,2.949,7.785,7.785,0,0,0-1.113,2.046l-3.482,6.671c-.187.219-.423.413-.378.75h0a18.918,18.918,0,0,1-4.412.128c-.759,0-1.605.357-2.294-.293a5.1,5.1,0,0,0,.668-1.745l3.531-8.3c-3.084,0-5.916-.033-8.746.013-.093,0-.187,0-.281,0-.446-.019-.892-.029-1.339-.027a14.357,14.357,0,0,0-3.533.18h0c1.854,4,4.081,7.8,6.284,11.608,1.241,2.583,2.655,5.071,4.111,7.537a.982.982,0,0,0,1.182.894c.842-.063,1.69-.043,2.535-.06h3.193c.754.016,1.514-.023,2.26.062a1.328,1.328,0,0,0,1.634-1.121l1.45-2.61h0a15.227,15.227,0,0,0,1.624-2.956,76.243,76.243,0,0,0,3.76-6.719,37.838,37.838,0,0,0,2.666-4.809c1.12-1.951,2.233-3.905,3.365-5.849a.942.942,0,0,0-.023-1.065C-438.7,348.743-439.818,346.847-440.94,344.954ZM-461.909,365.6h0Z" transform="translate(-23.874 -0.048)" fill="#fff"/>
    <path id="Path_209" data-name="Path 209" d="M-226.824,343.442c1.474-1.209,2.826-2.566,4.463-4.08-1.587,0-3.118-.533-4.059.2-1.312,1.015-2.183,2.6-3.426,4.175C-228.591,343.563-227.572,344.056-226.824,343.442Z" transform="translate(-154.94 -6.348)" fill="#fff"/>
  </g>
</svg>
