<svg xmlns="http://www.w3.org/2000/svg" width="135" height="135" viewBox="0 0 135 135">
  <path id="Path_228" data-name="Path 228" d="M715.89,399.53a67.5,67.5,0,1,0,67.5,67.5A67.495,67.495,0,0,0,715.89,399.53Zm-3.378,59.524a9.522,9.522,0,0,1-19.044,0v-.1a9.514,9.514,0,0,1,9.483-9.457H703A9.525,9.525,0,0,1,712.513,459.054ZM703,474.591c6.314,0,18.967,3.482,19.071,9.795a22.882,22.882,0,0,1-38.141,0C684.011,478.072,696.638,474.591,703,474.591Zm21.9-34.607h36.062V467.03H724.906Zm4.495,4.495V449l13.536,9.016L756.473,449v-4.521l-13.536,9.016Z" transform="translate(-648.39 -399.53)" fill="#fff"/>
</svg>
