<?xml version="1.0" encoding="utf-8"?>
<!-- Generator: Adobe Illustrator 25.1.0, SVG Export Plug-In . SVG Version: 6.00 Build 0)  -->
<svg version="1.1" id="Layer_1" xmlns="http://www.w3.org/2000/svg" xmlns:xlink="http://www.w3.org/1999/xlink" x="0px" y="0px"
	 viewBox="0 0 24 24" style="enable-background:new 0 0 24 24;" xml:space="preserve">
<style type="text/css">
	.st0{fill:#FFFFFF;}
</style>
<g>
	<polygon class="st0" points="16.8,12 12,16.8 7.2,12 10.8,12 10.8,7.2 13.2,7.2 13.2,12 	"/>
	<path class="st0" d="M12,0C5.4,0,0,5.4,0,12s5.4,12,12,12s12-5.4,12-12S18.6,0,12,0z M12,21.6c-5.3,0-9.6-4.3-9.6-9.6
		S6.7,2.4,12,2.4c5.3,0,9.6,4.3,9.6,9.6S17.3,21.6,12,21.6z"/>
	<path class="st0" d="M13.2,12V7.2h-2.4V12H7.2l4.8,4.8l4.8-4.8H13.2z M13.2,12V7.2h-2.4V12H7.2l4.8,4.8l4.8-4.8H13.2z M13.2,12V7.2
		h-2.4V12H7.2l4.8,4.8l4.8-4.8H13.2z M12,0C5.4,0,0,5.4,0,12s5.4,12,12,12s12-5.4,12-12S18.6,0,12,0z M12,21.6
		c-5.3,0-9.6-4.3-9.6-9.6S6.7,2.4,12,2.4c5.3,0,9.6,4.3,9.6,9.6S17.3,21.6,12,21.6z M13.2,7.2h-2.4V12H7.2l4.8,4.8l4.8-4.8h-3.6V7.2
		z M13.2,12V7.2h-2.4V12H7.2l4.8,4.8l4.8-4.8H13.2z M13.2,12V7.2h-2.4V12H7.2l4.8,4.8l4.8-4.8H13.2z M13.2,12V7.2h-2.4V12H7.2
		l4.8,4.8l4.8-4.8H13.2z"/>
</g>
</svg>
